<?xml version="1.0" encoding="UTF-8"?>
<svg id="Layer_1" xmlns="http://www.w3.org/2000/svg" xmlns:xlink="http://www.w3.org/1999/xlink" version="1.1" viewBox="0 0 829.69 375">
  <!-- Generator: Adobe Illustrator 30.2.1, SVG Export Plug-In . SVG Version: 2.1.1 Build 1)  -->
  <defs>
    <style>
      .st0, .st1, .st2 {
        fill: none;
      }

      .st3, .st4 {
        font-family: CMR10, CMR10;
      }

      .st3, .st5 {
        font-size: 17.77px;
      }

      .st4, .st6 {
        font-size: 19.54px;
      }

      .st7 {
        fill: #a39f9f;
        opacity: .5;
      }

      .st7, .st8 {
        isolation: isolate;
      }

      .st9 {
        fill: #ffdf85;
      }

      .st10, .st1, .st2, .st11, .st12, .st13, .st14 {
        stroke: #000;
      }

      .st10, .st11 {
        fill: #dcdcdc;
      }

      .st15 {
        font-family: CMSY10, CMSY10;
        font-size: 35.59px;
      }

      .st1 {
        stroke-width: .18px;
      }

      .st16 {
        font-family: SegoeUI-Bold, 'Segoe UI';
        font-size: 16px;
        font-weight: 700;
      }

      .st2 {
        stroke-width: .7px;
      }

      .st8 {
        fill: #239bf0;
        opacity: .6;
      }

      .st17 {
        letter-spacing: .17em;
      }

      .st18 {
        letter-spacing: .17em;
      }

      .st19 {
        letter-spacing: .17em;
      }

      .st20 {
        letter-spacing: .17em;
      }

      .st21 {
        clip-path: url(#clippath-1);
      }

      .st22 {
        clip-path: url(#clippath-2);
      }

      .st11, .st14 {
        opacity: .85;
      }

      .st23 {
        letter-spacing: 0em;
      }

      .st24 {
        fill: #ff9d33;
      }

      .st12, .st25, .st14 {
        fill: red;
      }

      .st26 {
        opacity: .95;
      }

      .st27 {
        fill: #ffce31;
      }

      .st28 {
        letter-spacing: -.17em;
      }

      .st29 {
        letter-spacing: -.17em;
      }

      .st25 {
        stroke: red;
      }

      .st30 {
        letter-spacing: .11em;
      }

      .st5, .st6 {
        font-family: CMMI10, CMMI10;
      }

      .st31 {
        letter-spacing: .02em;
      }

      .st32 {
        letter-spacing: .02em;
      }

      .st33 {
        clip-path: url(#clippath);
      }

      .st34 {
        letter-spacing: .02em;
      }

      .st35 {
        letter-spacing: .02em;
      }

      .st36 {
        letter-spacing: .05em;
      }
    </style>
    <clipPath id="clippath">
      <rect class="st0" x="664" y="97.92" width="92.72" height="21.02"/>
    </clipPath>
    <clipPath id="clippath-1">
      <rect class="st0" x="309" y="37.06" width="109.51" height="23.1"/>
    </clipPath>
    <clipPath id="clippath-2">
      <rect class="st0" x="205.22" y="120.86" width="31.71" height="30.83"/>
    </clipPath>
  </defs>
  <path class="st25" d="M381.8,108.42l-40.68,213.9"/>
  <g>
    <polygon class="st10" points="325.88 258.4 308.98 250.35 328.64 242.9 345.65 250.35 325.88 258.4"/>
    <polygon class="st10" points="343.96 267 325.67 258.3 345.44 250.26 363.78 258.3 343.96 267"/>
    <polygon class="st10" points="363.57 276.34 343.73 266.89 363.55 258.2 383.39 266.89 363.57 276.34"/>
    <polygon class="st10" points="384.93 286.5 363.32 276.22 383.14 266.78 404.67 276.22 384.93 286.5"/>
    <polygon class="st10" points="304.48 267.11 287.75 258.4 308.98 250.35 325.88 258.4 304.48 267.11"/>
    <polygon class="st10" points="322.42 276.46 304.27 267 325.67 258.3 343.96 267 322.42 276.46"/>
    <polygon class="st10" points="341.96 286.63 322.19 276.34 343.73 266.89 363.57 276.34 341.96 286.63"/>
    <polygon class="st10" points="363.32 297.76 341.71 286.5 363.32 276.22 384.93 286.5 363.32 297.76"/>
    <polygon class="st10" points="363.96 242.9 346.91 235.97 363.92 229.52 380.98 235.97 363.96 242.9"/>
    <polygon class="st10" points="382.09 250.26 363.75 242.81 380.76 235.89 399.06 242.81 382.09 250.26"/>
    <polygon class="st10" points="401.64 258.2 381.86 250.17 398.83 242.72 418.5 250.17 401.64 258.2"/>
    <polygon class="st10" points="422.79 266.78 401.39 258.1 418.25 250.07 439.47 258.1 422.79 266.78"/>
    <polygon class="st10" points="345.65 250.35 328.64 242.9 346.91 235.97 363.96 242.9 345.65 250.35"/>
    <polygon class="st10" points="363.78 258.3 345.44 250.26 363.75 242.81 382.09 250.26 363.78 258.3"/>
    <polygon class="st10" points="383.39 266.89 363.55 258.2 381.86 250.17 401.64 258.2 383.39 266.89"/>
    <polygon class="st10" points="404.67 276.22 383.14 266.78 401.39 258.1 422.79 266.78 404.67 276.22"/>
  </g>
  <g class="st26">
    <polygon class="st10" points="325.59 244.83 308.68 236.78 328.35 229.33 345.36 236.78 325.59 244.83"/>
    <polygon class="st10" points="343.66 253.43 325.38 244.73 345.14 236.69 363.49 244.73 343.66 253.43"/>
    <polygon class="st10" points="363.28 262.77 343.43 253.32 363.26 244.63 383.1 253.32 363.28 262.77"/>
    <polygon class="st10" points="384.63 272.93 363.02 262.65 382.85 253.21 404.38 262.65 384.63 272.93"/>
    <polygon class="st10" points="304.19 253.54 287.46 244.83 308.68 236.78 325.59 244.83 304.19 253.54"/>
    <polygon class="st10" points="322.13 262.89 303.98 253.43 325.38 244.73 343.66 253.43 322.13 262.89"/>
    <polygon class="st10" points="341.67 273.06 321.9 262.77 343.43 253.32 363.28 262.77 341.67 273.06"/>
    <polygon class="st10" points="363.02 284.19 341.42 272.93 363.02 262.65 384.63 272.93 363.02 284.19"/>
    <polygon class="st10" points="363.67 229.33 346.61 222.4 363.63 215.95 380.68 222.4 363.67 229.33"/>
    <polygon class="st10" points="381.8 236.69 363.46 229.24 380.47 222.32 398.76 229.24 381.8 236.69"/>
    <polygon class="st10" points="401.35 244.63 381.57 236.6 398.53 229.16 418.21 236.6 401.35 244.63"/>
    <polygon class="st10" points="422.5 253.21 401.1 244.53 417.96 236.5 439.18 244.53 422.5 253.21"/>
    <polygon class="st10" points="345.36 236.78 328.35 229.33 346.61 222.4 363.67 229.33 345.36 236.78"/>
    <polygon class="st10" points="363.49 244.73 345.14 236.69 363.46 229.24 381.8 236.69 363.49 244.73"/>
    <polygon class="st10" points="383.1 253.32 363.26 244.63 381.57 236.6 401.35 244.63 383.1 253.32"/>
    <polygon class="st10" points="404.38 262.65 382.85 253.21 401.1 244.53 422.5 253.21 404.38 262.65"/>
  </g>
  <g class="st26">
    <polygon class="st10" points="325.59 228.02 308.68 219.97 328.35 212.52 345.36 219.97 325.59 228.02"/>
    <polygon class="st10" points="343.66 236.62 325.38 227.92 345.14 219.88 363.49 227.92 343.66 236.62"/>
    <polygon class="st10" points="363.28 245.96 343.43 236.51 363.26 227.82 383.1 236.51 363.28 245.96"/>
    <polygon class="st10" points="384.63 256.12 363.02 245.84 382.85 236.4 404.38 245.84 384.63 256.12"/>
    <polygon class="st10" points="304.19 236.73 287.46 228.02 308.68 219.97 325.59 228.02 304.19 236.73"/>
    <polygon class="st10" points="322.13 246.08 303.98 236.62 325.38 227.92 343.66 236.62 322.13 246.08"/>
    <polygon class="st10" points="341.67 256.25 321.9 245.96 343.43 236.51 363.28 245.96 341.67 256.25"/>
    <polygon class="st10" points="363.02 267.38 341.42 256.12 363.02 245.84 384.63 256.12 363.02 267.38"/>
    <polygon class="st10" points="363.67 212.52 346.61 205.59 363.63 199.14 380.68 205.59 363.67 212.52"/>
    <polygon class="st10" points="381.8 219.88 363.46 212.43 380.47 205.51 398.76 212.43 381.8 219.88"/>
    <polygon class="st10" points="401.35 227.82 381.57 219.79 398.53 212.35 418.21 219.79 401.35 227.82"/>
    <polygon class="st10" points="422.5 236.4 401.1 227.72 417.96 219.69 439.18 227.72 422.5 236.4"/>
    <polygon class="st10" points="345.36 219.97 328.35 212.52 346.61 205.59 363.67 212.52 345.36 219.97"/>
    <polygon class="st12" points="363.49 227.92 345.14 219.88 363.46 212.43 381.8 219.88 363.49 227.92"/>
    <polygon class="st10" points="383.1 236.51 363.26 227.82 381.57 219.79 401.35 227.82 383.1 236.51"/>
    <polygon class="st10" points="404.38 245.84 382.85 236.4 401.1 227.72 422.5 236.4 404.38 245.84"/>
  </g>
  <g class="st26">
    <polygon class="st10" points="676.83 176.6 659.93 168.55 679.59 161.1 696.6 168.55 676.83 176.6"/>
    <polygon class="st10" points="694.91 185.2 676.62 176.5 696.39 168.46 714.73 176.5 694.91 185.2"/>
    <polygon class="st10" points="714.52 194.53 694.68 185.09 714.5 176.39 734.34 185.09 714.52 194.53"/>
    <polygon class="st10" points="735.88 204.7 714.27 194.41 734.09 184.98 755.62 194.41 735.88 204.7"/>
    <polygon class="st10" points="655.43 185.31 638.7 176.6 659.93 168.55 676.83 176.6 655.43 185.31"/>
    <polygon class="st10" points="673.37 194.65 655.22 185.2 676.62 176.5 694.91 185.2 673.37 194.65"/>
    <polygon class="st10" points="692.91 204.83 673.14 194.53 694.68 185.09 714.52 194.53 692.91 204.83"/>
    <polygon class="st10" points="714.27 215.95 692.66 204.7 714.27 194.41 735.88 204.7 714.27 215.95"/>
    <polygon class="st10" points="714.91 161.1 697.86 154.17 714.87 147.72 731.93 154.17 714.91 161.1"/>
    <polygon class="st10" points="733.04 168.46 714.7 161.01 731.71 154.09 750.01 161.01 733.04 168.46"/>
    <polygon class="st10" points="752.59 176.39 732.81 168.36 749.78 160.92 769.45 168.36 752.59 176.39"/>
    <polygon class="st10" points="773.74 184.98 752.34 176.29 769.2 168.27 790.42 176.29 773.74 184.98"/>
    <polygon class="st10" points="696.6 168.55 679.59 161.1 697.86 154.17 714.91 161.1 696.6 168.55"/>
    <polygon class="st10" points="714.73 176.5 696.39 168.46 714.7 161.01 733.04 168.46 714.73 176.5"/>
    <polygon class="st10" points="734.34 185.09 714.5 176.39 732.81 168.36 752.59 176.39 734.34 185.09"/>
    <polygon class="st10" points="755.62 194.41 734.09 184.98 752.34 176.29 773.74 184.98 755.62 194.41"/>
  </g>
  <polygon class="st11" points="325.3 123.66 308.39 115.61 328.05 108.16 345.07 115.61 325.3 123.66"/>
  <polygon class="st11" points="343.37 132.26 325.08 123.56 344.85 115.52 363.2 123.56 343.37 132.26"/>
  <polygon class="st11" points="362.98 141.6 343.14 132.15 362.96 123.46 382.81 132.15 362.98 141.6"/>
  <polygon class="st11" points="384.34 151.76 362.73 141.48 382.56 132.04 404.09 141.48 384.34 151.76"/>
  <polygon class="st11" points="303.9 132.37 287.17 123.66 308.39 115.61 325.3 123.66 303.9 132.37"/>
  <polygon class="st11" points="321.84 141.72 303.68 132.26 325.08 123.56 343.37 132.26 321.84 141.72"/>
  <polygon class="st11" points="341.37 151.89 321.61 141.6 343.14 132.15 362.98 141.6 341.37 151.89"/>
  <polygon class="st11" points="362.73 163.02 341.12 151.76 362.73 141.48 384.34 151.76 362.73 163.02"/>
  <polygon class="st11" points="363.38 108.16 346.32 101.23 363.33 94.78 380.39 101.23 363.38 108.16"/>
  <polygon class="st14" points="381.51 115.52 363.16 108.07 380.17 101.15 398.47 108.07 381.51 115.52"/>
  <polygon class="st11" points="401.06 123.46 381.27 115.43 398.24 107.98 417.91 115.43 401.06 123.46"/>
  <polygon class="st11" points="422.2 132.04 400.81 123.36 417.67 115.33 438.88 123.36 422.2 132.04"/>
  <polygon class="st11" points="345.07 115.61 328.05 108.16 346.32 101.23 363.38 108.16 345.07 115.61"/>
  <polygon class="st11" points="363.2 123.56 344.85 115.52 363.16 108.07 381.51 115.52 363.2 123.56"/>
  <polygon class="st11" points="382.81 132.15 362.96 123.46 381.27 115.43 401.06 123.46 382.81 132.15"/>
  <polygon class="st11" points="404.09 141.48 382.56 132.04 400.81 123.36 422.2 132.04 404.09 141.48"/>
  <polygon class="st8" points="325.38 325.29 334.76 333.56 351.25 340.1 342.67 331.76 325.38 325.29"/>
  <polygon class="st2" points="325.38 325.29 334.76 333.56 351.25 340.1 342.67 331.76 325.38 325.29"/>
  <polyline class="st2" points="325.59 325.31 330.55 347.2 351.15 340.07"/>
  <polyline class="st2" points="334.86 333.43 330.81 346.9 339.69 335.23"/>
  <path class="st7" d="M339.83,334.59c-.12-.05-.35-.15-.57-.27-.22-.12-.41-.24-.55-.38s-.22-.27-.23-.4c-.02-.13.02-.25-.04-.34-.06-.08-.22-.12-.37-.16-.15-.03-.28-.09-.4-.17s-.24-.19-.32-.29-.15-.2-.22-.3-.16-.19-.17-.29c-.03-.09,0-.18.07-.26.05-.08.12-.15.12-.22,0-.07-.06-.12-.15-.18-.07-.06-.16-.11-.24-.22-.07-.11-.13-.27-.09-.38.04-.12.17-.2.32-.23.14-.04.28-.02.43,0,.14.03.29.07.44.14.16.08.32.18.49.24s.36.09.51.14.26.14.3.23c.05.1.04.22,0,.33s-.1.2-.1.27.06.1.17.12c.11.02.25,0,.38,0s.25.01.39.06.31.13.47.27c.17.14.33.32.4.48.06.15,0,.25.01.31s.12.1.26.14.32.1.49.19c.18.09.37.24.47.38.09.14.1.28.08.39-.03.1-.09.18-.2.22-.1.03-.24.02-.27.07-.03.05.05.17.1.29.04.11.04.22-.04.31-.08.09-.25.16-.42.15-.16,0-.33-.06-.45-.15-.13-.09-.22-.2-.26-.31s-.04-.25-.15-.27c-.1-.03-.31.05-.41.1-.07.03-.15.02-.22-.01h0s-.03,0-.03,0Z"/>
  <path class="st1" d="M339.83,334.59c-.12-.05-.35-.15-.57-.27-.22-.12-.41-.24-.55-.38-.14-.13-.22-.27-.23-.4-.02-.13.02-.25-.04-.34-.06-.08-.22-.12-.37-.16-.15-.03-.28-.09-.4-.17-.12-.08-.24-.19-.32-.29-.08-.1-.15-.2-.22-.3-.08-.09-.16-.19-.17-.29-.03-.09,0-.18.07-.26.05-.08.12-.15.12-.22,0-.07-.06-.12-.15-.18-.07-.06-.16-.11-.23-.23-.07-.11-.13-.27-.09-.38.04-.12.17-.2.32-.23.14-.04.28-.02.43,0,.14.03.29.07.44.14.16.08.32.18.49.24.17.06.36.09.51.14.15.06.26.14.3.23.05.1.04.22,0,.33-.04.11-.1.2-.1.27s.06.1.17.12c.11.02.25,0,.38.01.13,0,.25.01.39.06.14.05.31.13.47.27.17.14.33.32.4.48.06.15,0,.25.01.31.02.07.12.1.26.14.14.04.32.1.49.19.18.09.37.24.47.38.09.14.1.28.08.39-.03.1-.09.18-.2.22-.1.03-.24.02-.27.07-.03.05.05.17.1.29.04.11.04.22-.04.31-.08.09-.25.16-.42.15-.16,0-.33-.06-.45-.15-.13-.09-.22-.2-.26-.31-.05-.12-.04-.25-.15-.27-.1-.03-.31.05-.41.1-.07.02-.14.02-.22-.01h0s-.03,0-.03,0Z"/>
  <path class="st12" d="M363.63,215.95"/>
  <path class="st25" d="M372.26,158.41l-11.67,61.57"/>
  <polygon class="st13" points="254.33 184.55 241.63 177.21 241.63 183.26 194.13 183.26 194.13 185.84 241.63 185.84 241.63 191.89 254.33 184.55"/>
  <polygon class="st13" points="592.58 180.87 579.87 173.53 579.87 179.58 532.37 179.58 532.37 182.16 579.87 182.16 579.87 188.21 592.58 180.87"/>
  <rect class="st10" x="43.23" y="184.98" width="32" height="32"/>
  <rect class="st10" x="74.84" y="184.98" width="32" height="32"/>
  <rect class="st10" x="106.45" y="184.98" width="32" height="32"/>
  <rect class="st10" x="138.06" y="184.98" width="32" height="32"/>
  <rect class="st10" x="43.23" y="216.98" width="32" height="32"/>
  <rect class="st10" x="74.84" y="216.98" width="32" height="32"/>
  <rect class="st10" x="106.45" y="216.98" width="32" height="32"/>
  <rect class="st10" x="138.06" y="216.98" width="32" height="32"/>
  <rect class="st10" x="43.23" y="120.98" width="32" height="32"/>
  <rect class="st10" x="74.84" y="120.98" width="32" height="32"/>
  <rect class="st10" x="106.45" y="120.98" width="32" height="32"/>
  <rect class="st10" x="138.06" y="120.98" width="32" height="32"/>
  <rect class="st10" x="43.23" y="152.98" width="32" height="32"/>
  <rect class="st10" x="74.84" y="152.98" width="32" height="32"/>
  <rect class="st12" x="106.45" y="152.98" width="32" height="32"/>
  <rect class="st10" x="138.06" y="152.98" width="32" height="32"/>
  <rect class="st13" x="476.08" y="77.5" width="2.42" height="223.56"/>
  <rect class="st13" x="460.46" y="77.5" width="18.04" height="3.42"/>
  <rect class="st13" x="460.46" y="297.76" width="18.04" height="3.3"/>
  <text class="st16" transform="translate(485.47 158.59) rotate(90)"><tspan x="0" y="0">Flatten</tspan></text>
  <g id="LaTeX2AI">
    <g class="st33">
      <text class="st3" transform="translate(665.62 112.87)"><tspan x="0" y="0">[</tspan></text>
      <text class="st5" transform="translate(670.56 112.87)"><tspan class="st29" x="0" y="0">d</tspan><tspan class="st30" x="7.07" y="0">f</tspan><tspan class="st35" x="14.18" y="0">Z</tspan><tspan class="st18" x="24.3" y="0">,</tspan><tspan class="st31" x="30.94" y="0">H</tspan><tspan class="st20" x="42.98" y="0">,</tspan><tspan class="st23" x="49.62" y="0">W</tspan></text>
      <text class="st3" transform="translate(750.16 112.87)"><tspan x="0" y="0">]</tspan></text>
    </g>
  </g>
  <g id="LaTeX2AI1" data-name="LaTeX2AI">
    <g class="st21">
      <text class="st4" transform="translate(310.78 53.49)"><tspan x="0" y="0">[</tspan></text>
      <text class="st6" transform="translate(316.21 53.49)"><tspan class="st28" x="0" y="0">d</tspan><tspan class="st36" x="7.77" y="0">f</tspan><tspan class="st17" x="14.5" y="0">,</tspan><tspan class="st34" x="21.8" y="0">Z</tspan><tspan class="st19" x="32.92" y="0">,</tspan><tspan class="st32" x="40.22" y="0">H</tspan><tspan class="st17" x="53.45" y="0">,</tspan><tspan x="60.75" y="0">W</tspan></text>
      <text class="st4" transform="translate(411.3 53.49)"><tspan x="0" y="0">]</tspan></text>
    </g>
  </g>
  <g id="LaTeX2AI2" data-name="LaTeX2AI">
    <g class="st22">
      <text class="st15" transform="translate(208.01 148.44) scale(.86 1)"><tspan x="0" y="0">H</tspan></text>
    </g>
  </g>
  <g>
    <path d="M192.55,168.74h-3.01s-.01,3-.01,3h-1.58s.01-3.01.01-3.01h-3.02s0-1.6,0-1.6h3.02s.01-3.01.01-3.01h1.58s-.01,3.03-.01,3.03h3.01s0,1.6,0,1.6Z"/>
    <path d="M212.2,172.6h-2.75s-.79-2.51-.79-2.51h-3.98s-.8,2.48-.8,2.48h-2.73s4.12-11.2,4.12-11.2h2.99s3.94,11.23,3.94,11.23ZM208.09,168.15l-1.19-3.77c-.09-.28-.15-.62-.18-1.01h-.06c-.03.33-.09.65-.2.98l-1.23,3.79h2.87Z"/>
    <path d="M221.18,172.63h-2.47s0-1.11,0-1.11h-.03c-.57.86-1.39,1.29-2.48,1.29-1,0-1.8-.36-2.41-1.07-.61-.71-.91-1.7-.9-2.96,0-1.32.34-2.38,1.02-3.18.67-.79,1.56-1.19,2.64-1.19,1.03,0,1.75.38,2.15,1.12h.03l.02-4.76h2.47s-.04,11.85-.04,11.85ZM218.77,168.73v-.6c0-.52-.15-.95-.45-1.3-.3-.35-.69-.52-1.18-.52-.55,0-.97.21-1.28.64-.31.43-.46,1.02-.47,1.77,0,.7.14,1.25.44,1.63.3.38.71.57,1.23.58.5,0,.91-.2,1.22-.6.32-.4.48-.93.48-1.59Z"/>
    <path d="M229.92,172.66h-2.34s0-1.16,0-1.16h-.03c-.54.89-1.34,1.34-2.39,1.33-.78,0-1.39-.22-1.83-.67-.44-.44-.66-1.03-.66-1.76,0-1.55.93-2.45,2.77-2.68l2.17-.28c0-.88-.47-1.31-1.42-1.32-.95,0-1.86.28-2.72.84v-1.86c.35-.18.82-.33,1.42-.46.6-.13,1.14-.2,1.63-.2,2.28,0,3.42,1.15,3.41,3.43l-.02,4.78ZM227.61,169.41v-.54s-1.45.18-1.45.18c-.8.1-1.21.46-1.21,1.08,0,.28.1.51.29.69.2.18.46.27.79.27.46,0,.84-.16,1.13-.48s.44-.72.44-1.21Z"/>
    <path d="M238.78,172.7l-6.67-.02.04-11.2h2.52s-.03,9.17-.03,9.17h4.15s0,2.06,0,2.06Z"/>
    <path d="M250.37,172.74h-2.55s-4.59-7.07-4.59-7.07c-.27-.41-.46-.72-.56-.93h-.03c.04.4.06,1,.06,1.81l-.02,6.16h-2.38s.04-11.21.04-11.21h2.72s4.42,6.85,4.42,6.85c.2.31.39.61.56.92h.03c-.04-.26-.06-.77-.06-1.54l.02-6.2h2.38s-.04,11.21-.04,11.21Z"/>
    <g>
      <path class="st24" d="M270.33,165.75s-.76.69-2.03,1.51c-.34-2.02-1.29-4.52-3.18-7.57,0,0-.63,3.26-2.72,6.35-.9-1.4-1.28-2.5-1.28-2.5-6.54,6.5-1.16,11.13,2.24,11.15,4.36.02,8.2-2.06,6.98-8.93Z"/>
      <path class="st27" d="M267.75,171.56c.38-.83.65-1.89.71-3.25,0,0-.53.46-1.42,1.01-.24-1.35-.9-3.01-2.23-5.05,0,0-.44,2.18-1.9,4.23-.63-.94-.9-1.67-.9-1.67-1.09,1.7-1.52,3.05-1.55,4.11-.6-.22-.96-.41-.96-.41,1.01,3.06,3.13,3.73,4.08,3.74,1.7,0,3.42-.49,5.14-2.91,0,0-.38.1-.97.2Z"/>
      <path class="st9" d="M261.56,170.14s.7.96,1.23.73c0,0,1.02-1.57,2.47-2.44,0,0-.31,2.4.03,2.83.45.57,1.69-.62,1.69-.62,0,1.42-1.56,3.2-2.95,3.2-1.38,0-3.33-1.55-2.46-3.69Z"/>
      <path class="st24" d="M268.54,163.74c.53-.76.89-1.54.89-1.54.87,1.45.35,2.32-.04,2.61-.52.38-1.46-.2-.85-1.07Z"/>
      <path class="st24" d="M258.99,163.45c-.51-.88-.56-1.98-.56-1.98-1.26,1.88-.77,2.91-.36,3.22.56.42,1.51-.22.92-1.24Z"/>
      <path class="st24" d="M261.91,161.5c.07-.59-.18-1.21-.18-1.21,1.18.77,1.17,1.44,1.01,1.7-.21.35-.91.19-.83-.49Z"/>
    </g>
  </g>
</svg>